<svg width="466.46251220703124px" height="135.21750488281248px" xmlns="http://www.w3.org/2000/svg" viewBox="16.76874389648438 7.391247558593761 466.46251220703124 135.21750488281248" style="background: rgb(255, 255, 255);" preserveAspectRatio="xMidYMid"><defs><filter id="editing-hover" x="-100%" y="-100%" width="300%" height="300%"><feFlood flood-color="rgba(1.9607843137254888%,16.862745098039188%,29.01960784313726%,0)" result="flood"></feFlood><feComposite operator="in" in2="SourceAlpha" in="flood" result="shadow"></feComposite><feOffset dx="-0.6" dy="0.1" in="SourceGraphic" result="offset-1"></feOffset><feOffset dx="0.6" dy="-0.1" in="shadow" result="offset-2"></feOffset><feMerge><feMergeNode in="offset-2"></feMergeNode><feMergeNode in="offset-1"></feMergeNode></feMerge></filter></defs><g filter="url(#editing-hover)"><g transform="translate(84.85562372207642, 100.50500106811523)"><path d="M34.62-45.31L34.62-45.31Q34.18-40.77 34.18-37.12L34.18-37.12L34.18-37.12Q34.18-33.92 34.37-31.87L34.37-31.87L32.90-31.87L32.90-31.87Q32.38-36.80 31.62-39.20L31.62-39.20L31.62-39.20Q30.85-41.60 28.93-42.72L28.93-42.72L28.93-42.72Q27.01-43.84 23.04-43.84L23.04-43.84L19.01-43.84L19.01-43.84Q16.70-43.84 15.65-43.49L15.65-43.49L15.65-43.49Q14.59-43.14 14.21-42.05L14.21-42.05L14.21-42.05Q13.82-40.96 13.82-38.53L13.82-38.53L13.82-22.78L18.50-22.78L18.50-22.78Q20.74-22.78 21.95-23.84L21.95-23.84L21.95-23.84Q23.17-24.90 23.58-26.34L23.58-26.34L23.58-26.34Q24-27.78 24.26-29.95L24.26-29.95L24.45-31.23L25.92-31.23L25.92-31.23Q25.73-28.54 25.73-25.22L25.73-25.22L25.73-22.14L25.73-22.14Q25.73-18.88 26.11-13.06L26.11-13.06L24.64-13.06L24.64-13.06Q24.58-13.50 24.26-16.16L24.26-16.16L24.26-16.16Q23.94-18.82 22.50-20.16L22.50-20.16L22.50-20.16Q21.06-21.50 18.50-21.50L18.50-21.50L13.82-21.50L13.82-6.78L13.82-6.78Q13.82-4.35 14.34-3.26L14.34-3.26L14.34-3.26Q14.85-2.18 16.13-1.79L16.13-1.79L16.13-1.79Q17.41-1.41 20.29-1.28L20.29-1.28L20.29 0L20.29 0Q16.96-0.19 10.88-0.19L10.88-0.19L10.88-0.19Q5.38-0.19 2.69 0L2.69 0L2.69-1.28L2.69-1.28Q4.99-1.41 6.05-1.79L6.05-1.79L6.05-1.79Q7.10-2.18 7.49-3.26L7.49-3.26L7.49-3.26Q7.87-4.35 7.87-6.78L7.87-6.78L7.87-38.53L7.87-38.53Q7.87-40.96 7.49-42.05L7.49-42.05L7.49-42.05Q7.10-43.14 6.05-43.52L6.05-43.52L6.05-43.52Q4.99-43.90 2.69-44.03L2.69-44.03L2.69-45.31L2.69-45.31Q8.96-45.12 21.25-45.12L21.25-45.12L21.25-45.12Q30.66-45.12 34.62-45.31L34.62-45.31ZM46.85 0.45L46.85 0.45Q42.82 0.45 40.86-1.57L40.86-1.57L40.86-1.57Q38.91-3.58 38.91-7.17L38.91-7.17L38.91-7.17Q38.91-10.05 40.48-11.90L40.48-11.90L40.48-11.90Q42.05-13.76 44.19-14.85L44.19-14.85L44.19-14.85Q46.34-15.94 49.86-17.15L49.86-17.15L49.86-17.15Q53.44-18.37 55.17-19.39L55.17-19.39L55.17-19.39Q56.90-20.42 56.90-22.14L56.90-22.14L56.90-26.11L56.90-26.11Q56.90-29.82 55.33-31.20L55.33-31.20L55.33-31.20Q53.76-32.58 50.94-32.58L50.94-32.58L50.94-32.58Q46.46-32.58 44.61-30.27L44.61-30.27L44.61-30.27Q45.89-29.95 46.75-28.93L46.75-28.93L46.75-28.93Q47.62-27.90 47.62-26.37L47.62-26.37L47.62-26.37Q47.62-24.77 46.59-23.84L46.59-23.84L46.59-23.84Q45.57-22.91 43.97-22.91L43.97-22.91L43.97-22.91Q42.18-22.91 41.28-24.03L41.28-24.03L41.28-24.03Q40.38-25.15 40.38-26.75L40.38-26.75L40.38-26.75Q40.38-28.29 41.12-29.31L41.12-29.31L41.12-29.31Q41.86-30.34 43.33-31.36L43.33-31.36L43.33-31.36Q44.86-32.45 47.23-33.15L47.23-33.15L47.23-33.15Q49.60-33.86 52.42-33.86L52.42-33.86L52.42-33.86Q57.41-33.86 59.97-31.49L59.97-31.49L59.97-31.49Q61.57-30.02 62.11-27.94L62.11-27.94L62.11-27.94Q62.66-25.86 62.66-22.46L62.66-22.46L62.66-4.67L62.66-4.67Q62.66-3.07 63.10-2.37L63.10-2.37L63.10-2.37Q63.55-1.66 64.64-1.66L64.64-1.66L64.64-1.66Q65.41-1.66 66.08-2.02L66.08-2.02L66.08-2.02Q66.75-2.37 67.52-3.01L67.52-3.01L68.22-1.92L68.22-1.92Q66.56-0.64 65.38-0.10L65.38-0.10L65.38-0.10Q64.19 0.45 62.40 0.45L62.40 0.45L62.40 0.45Q59.33 0.45 58.11-1.09L58.11-1.09L58.11-1.09Q56.90-2.62 56.90-5.25L56.90-5.25L56.90-5.25Q54.98-2.05 52.48-0.80L52.48-0.80L52.48-0.80Q49.98 0.45 46.85 0.45L46.85 0.45ZM49.66-2.11L49.66-2.11Q53.89-2.11 56.90-6.98L56.90-6.98L56.90-19.52L56.90-19.52Q56.32-18.62 55.30-18.05L55.30-18.05L55.30-18.05Q54.27-17.47 52.16-16.51L52.16-16.51L52.16-16.51Q49.73-15.49 48.22-14.56L48.22-14.56L48.22-14.56Q46.72-13.63 45.63-12.03L45.63-12.03L45.63-12.03Q44.54-10.43 44.54-7.94L44.54-7.94L44.54-7.94Q44.54-5.06 45.95-3.58L45.95-3.58L45.95-3.58Q47.36-2.11 49.66-2.11L49.66-2.11ZM81.60-33.86L81.60-33.86Q83.90-33.86 85.70-33.15L85.70-33.15L85.70-33.15Q87.49-32.45 88.58-31.49L88.58-31.49L88.58-31.49Q89.28-30.98 89.73-30.98L89.73-30.98L89.73-30.98Q90.88-30.98 91.14-33.79L91.14-33.79L92.61-33.79L92.61-33.79Q92.35-30.66 92.35-22.91L92.35-22.91L90.88-22.91L90.88-22.91Q90.18-27.14 88.16-29.89L88.16-29.89L88.16-29.89Q86.14-32.64 82.18-32.64L82.18-32.64L82.18-32.64Q79.87-32.64 78.40-31.33L78.40-31.33L78.40-31.33Q76.93-30.02 76.93-27.71L76.93-27.71L76.93-27.71Q76.93-25.47 78.46-23.97L78.46-23.97L78.46-23.97Q80.00-22.46 83.39-20.35L83.39-20.35L83.39-20.35Q83.97-20.03 85.12-19.26L85.12-19.26L85.12-19.26Q88.06-17.34 89.86-15.87L89.86-15.87L89.86-15.87Q91.65-14.40 92.77-12.48L92.77-12.48L92.77-12.48Q93.89-10.56 93.89-8.06L93.89-8.06L93.89-8.06Q93.89-3.84 90.72-1.47L90.72-1.47L90.72-1.47Q87.55 0.90 82.94 0.90L82.94 0.90L82.94 0.90Q80.06 0.90 77.89 0L77.89 0L77.89 0Q76.48-0.70 75.26-1.73L75.26-1.73L75.26-1.73Q75.01-1.98 74.69-1.98L74.69-1.98L74.69-1.98Q74.24-1.98 73.89-1.34L73.89-1.34L73.89-1.34Q73.54-0.70 73.34 0.45L73.34 0.45L71.87 0.45L71.87 0.45Q72.13-3.20 72.13-12.35L72.13-12.35L73.60-12.35L73.60-12.35Q74.30-6.34 76.16-3.36L76.16-3.36L76.16-3.36Q78.02-0.38 82.50-0.38L82.50-0.38L82.50-0.38Q84.74-0.38 86.46-1.86L86.46-1.86L86.46-1.86Q88.19-3.33 88.19-6.46L88.19-6.46L88.19-6.46Q88.19-8.96 86.50-10.69L86.50-10.69L86.50-10.69Q84.80-12.42 80.96-14.85L80.96-14.85L80.96-14.85Q77.82-16.83 76.13-18.11L76.13-18.11L76.13-18.11Q74.43-19.39 73.28-21.25L73.28-21.25L73.28-21.25Q72.13-23.10 72.13-25.60L72.13-25.60L72.13-25.60Q72.13-29.63 74.82-31.74L74.82-31.74L74.82-31.74Q77.50-33.86 81.60-33.86L81.60-33.86ZM108.80-50.11L108.80-26.18L108.80-26.18Q110.40-30.21 113.25-32.03L113.25-32.03L113.25-32.03Q116.10-33.86 119.68-33.86L119.68-33.86L119.68-33.86Q124.16-33.86 126.46-31.42L126.46-31.42L126.46-31.42Q127.68-30.14 128.19-28.22L128.19-28.22L128.19-28.22Q128.70-26.30 128.70-23.04L128.70-23.04L128.70-5.95L128.70-5.95Q128.70-3.33 129.79-2.34L129.79-2.34L129.79-2.34Q130.88-1.34 133.57-1.34L133.57-1.34L133.57 0L133.57 0Q127.68-0.26 125.89-0.26L125.89-0.26L125.89-0.26Q124.10-0.26 118.72 0L118.72 0L118.72-1.34L118.72-1.34Q121.09-1.34 122.02-2.34L122.02-2.34L122.02-2.34Q122.94-3.33 122.94-5.95L122.94-5.95L122.94-24.45L122.94-24.45Q122.94-28.03 121.92-29.92L121.92-29.92L121.92-29.92Q120.90-31.81 117.76-31.81L117.76-31.81L117.76-31.81Q115.14-31.81 113.12-30.34L113.12-30.34L113.12-30.34Q111.10-28.86 109.95-26.21L109.95-26.21L109.95-26.21Q108.80-23.55 108.80-20.22L108.80-20.22L108.80-5.95L108.80-5.95Q108.80-3.33 109.73-2.34L109.73-2.34L109.73-2.34Q110.66-1.34 113.02-1.34L113.02-1.34L113.02 0L113.02 0Q107.65-0.26 105.86-0.26L105.86-0.26L105.86-0.26Q104.06-0.26 98.18 0L98.18 0L98.18-1.34L98.18-1.34Q100.86-1.34 101.95-2.34L101.95-2.34L101.95-2.34Q103.04-3.33 103.04-5.95L103.04-5.95L103.04-42.43L103.04-42.43Q103.04-45.38 101.95-46.72L101.95-46.72L101.95-46.72Q100.86-48.06 98.18-48.06L98.18-48.06L98.18-49.41L98.18-49.41Q100.22-49.22 102.14-49.22L102.14-49.22L102.14-49.22Q106.18-49.22 108.80-50.11L108.80-50.11ZM143.68-48.96L143.68-48.96Q145.34-48.96 146.56-47.74L146.56-47.74L146.56-47.74Q147.78-46.53 147.78-44.86L147.78-44.86L147.78-44.86Q147.78-43.20 146.56-41.98L146.56-41.98L146.56-41.98Q145.34-40.77 143.68-40.77L143.68-40.77L143.68-40.77Q142.02-40.77 140.80-41.98L140.80-41.98L140.80-41.98Q139.58-43.20 139.58-44.86L139.58-44.86L139.58-44.86Q139.58-46.53 140.80-47.74L140.80-47.74L140.80-47.74Q142.02-48.96 143.68-48.96L143.68-48.96ZM147.01-33.66L147.01-5.95L147.01-5.95Q147.01-3.33 148.10-2.34L148.10-2.34L148.10-2.34Q149.18-1.34 151.87-1.34L151.87-1.34L151.87 0L151.87 0Q145.98-0.26 144.13-0.26L144.13-0.26L144.13-0.26Q142.27-0.26 136.38 0L136.38 0L136.38-1.34L136.38-1.34Q139.07-1.34 140.16-2.34L140.16-2.34L140.16-2.34Q141.25-3.33 141.25-5.95L141.25-5.95L141.25-25.98L141.25-25.98Q141.25-28.93 140.16-30.27L140.16-30.27L140.16-30.27Q139.07-31.62 136.38-31.62L136.38-31.62L136.38-32.96L136.38-32.96Q138.43-32.77 140.35-32.77L140.35-32.77L140.35-32.77Q144.38-32.77 147.01-33.66L147.01-33.66ZM170.82-33.86L170.82-33.86Q177.34-33.86 181.34-29.54L181.34-29.54L181.34-29.54Q185.34-25.22 185.34-16.45L185.34-16.45L185.34-16.45Q185.34-7.68 181.34-3.39L181.34-3.39L181.34-3.39Q177.34 0.90 170.82 0.90L170.82 0.90L170.82 0.90Q164.29 0.90 160.29-3.39L160.29-3.39L160.29-3.39Q156.29-7.68 156.29-16.45L156.29-16.45L156.29-16.45Q156.29-25.22 160.29-29.54L160.29-29.54L160.29-29.54Q164.29-33.86 170.82-33.86L170.82-33.86ZM170.82-32.58L170.82-32.58Q166.98-32.58 164.74-28.64L164.74-28.64L164.74-28.64Q162.50-24.70 162.50-16.45L162.50-16.45L162.50-16.45Q162.50-8.19 164.74-4.29L164.74-4.29L164.74-4.29Q166.98-0.38 170.82-0.38L170.82-0.38L170.82-0.38Q174.66-0.38 176.90-4.29L176.90-4.29L176.90-4.29Q179.14-8.19 179.14-16.45L179.14-16.45L179.14-16.45Q179.14-24.70 176.90-28.64L176.90-28.64L176.90-28.64Q174.66-32.58 170.82-32.58L170.82-32.58ZM211.71-33.86L211.71-33.86Q216.19-33.86 218.50-31.42L218.50-31.42L218.50-31.42Q219.71-30.14 220.22-28.22L220.22-28.22L220.22-28.22Q220.74-26.30 220.74-23.04L220.74-23.04L220.74-5.95L220.74-5.95Q220.74-3.33 221.82-2.34L221.82-2.34L221.82-2.34Q222.91-1.34 225.60-1.34L225.60-1.34L225.60 0L225.60 0Q219.71-0.26 217.92-0.26L217.92-0.26L217.92-0.26Q216.13-0.26 210.75 0L210.75 0L210.75-1.34L210.75-1.34Q213.12-1.34 214.05-2.34L214.05-2.34L214.05-2.34Q214.98-3.33 214.98-5.95L214.98-5.95L214.98-24.45L214.98-24.45Q214.98-28.03 213.95-29.92L213.95-29.92L213.95-29.92Q212.93-31.81 209.79-31.81L209.79-31.81L209.79-31.81Q207.17-31.81 205.12-30.27L205.12-30.27L205.12-30.27Q203.07-28.74 201.95-26.08L201.95-26.08L201.95-26.08Q200.83-23.42 200.83-20.16L200.83-20.16L200.83-5.95L200.83-5.95Q200.83-3.33 201.76-2.34L201.76-2.34L201.76-2.34Q202.69-1.34 205.06-1.34L205.06-1.34L205.06 0L205.06 0Q199.68-0.26 197.89-0.26L197.89-0.26L197.89-0.26Q196.10-0.26 190.21 0L190.21 0L190.21-1.34L190.21-1.34Q192.90-1.34 193.98-2.34L193.98-2.34L193.98-2.34Q195.07-3.33 195.07-5.95L195.07-5.95L195.07-25.98L195.07-25.98Q195.07-28.93 193.98-30.27L193.98-30.27L193.98-30.27Q192.90-31.62 190.21-31.62L190.21-31.62L190.21-32.96L190.21-32.96Q192.26-32.77 194.18-32.77L194.18-32.77L194.18-32.77Q198.21-32.77 200.83-33.66L200.83-33.66L200.83-26.11L200.83-26.11Q202.43-30.21 205.28-32.03L205.28-32.03L205.28-32.03Q208.13-33.86 211.71-33.86L211.71-33.86ZM235.71-48.96L235.71-48.96Q237.38-48.96 238.59-47.74L238.59-47.74L238.59-47.74Q239.81-46.53 239.81-44.86L239.81-44.86L239.81-44.86Q239.81-43.20 238.59-41.98L238.59-41.98L238.59-41.98Q237.38-40.77 235.71-40.77L235.71-40.77L235.71-40.77Q234.05-40.77 232.83-41.98L232.83-41.98L232.83-41.98Q231.62-43.20 231.62-44.86L231.62-44.86L231.62-44.86Q231.62-46.53 232.83-47.74L232.83-47.74L232.83-47.74Q234.05-48.96 235.71-48.96L235.71-48.96ZM239.04-33.66L239.04-5.95L239.04-5.95Q239.04-3.33 240.13-2.34L240.13-2.34L240.13-2.34Q241.22-1.34 243.90-1.34L243.90-1.34L243.90 0L243.90 0Q238.02-0.26 236.16-0.26L236.16-0.26L236.16-0.26Q234.30-0.26 228.42 0L228.42 0L228.42-1.34L228.42-1.34Q231.10-1.34 232.19-2.34L232.19-2.34L232.19-2.34Q233.28-3.33 233.28-5.95L233.28-5.95L233.28-25.98L233.28-25.98Q233.28-28.93 232.19-30.27L232.19-30.27L232.19-30.27Q231.10-31.62 228.42-31.62L228.42-31.62L228.42-32.96L228.42-32.96Q230.46-32.77 232.38-32.77L232.38-32.77L232.38-32.77Q236.42-32.77 239.04-33.66L239.04-33.66ZM258.62-33.86L258.62-33.86Q260.93-33.86 262.72-33.15L262.72-33.15L262.72-33.15Q264.51-32.45 265.60-31.49L265.60-31.49L265.60-31.49Q266.30-30.98 266.75-30.98L266.75-30.98L266.75-30.98Q267.90-30.98 268.16-33.79L268.16-33.79L269.63-33.79L269.63-33.79Q269.38-30.66 269.38-22.91L269.38-22.91L267.90-22.91L267.90-22.91Q267.20-27.14 265.18-29.89L265.18-29.89L265.18-29.89Q263.17-32.64 259.20-32.64L259.20-32.64L259.20-32.64Q256.90-32.64 255.42-31.33L255.42-31.33L255.42-31.33Q253.95-30.02 253.95-27.71L253.95-27.71L253.95-27.71Q253.95-25.47 255.49-23.97L255.49-23.97L255.49-23.97Q257.02-22.46 260.42-20.35L260.42-20.35L260.42-20.35Q260.99-20.03 262.14-19.26L262.14-19.26L262.14-19.26Q265.09-17.34 266.88-15.87L266.88-15.87L266.88-15.87Q268.67-14.40 269.79-12.48L269.79-12.48L269.79-12.48Q270.91-10.56 270.91-8.06L270.91-8.06L270.91-8.06Q270.91-3.84 267.74-1.47L267.74-1.47L267.74-1.47Q264.58 0.90 259.97 0.90L259.97 0.90L259.97 0.90Q257.09 0.90 254.91 0L254.91 0L254.91 0Q253.50-0.70 252.29-1.73L252.29-1.73L252.29-1.73Q252.03-1.98 251.71-1.98L251.71-1.98L251.71-1.98Q251.26-1.98 250.91-1.34L250.91-1.34L250.91-1.34Q250.56-0.70 250.37 0.45L250.37 0.45L248.90 0.45L248.90 0.45Q249.15-3.20 249.15-12.35L249.15-12.35L250.62-12.35L250.62-12.35Q251.33-6.34 253.18-3.36L253.18-3.36L253.18-3.36Q255.04-0.38 259.52-0.38L259.52-0.38L259.52-0.38Q261.76-0.38 263.49-1.86L263.49-1.86L263.49-1.86Q265.22-3.33 265.22-6.46L265.22-6.46L265.22-6.46Q265.22-8.96 263.52-10.69L263.52-10.69L263.52-10.69Q261.82-12.42 257.98-14.85L257.98-14.85L257.98-14.85Q254.85-16.83 253.15-18.11L253.15-18.11L253.15-18.11Q251.46-19.39 250.30-21.25L250.30-21.25L250.30-21.25Q249.15-23.10 249.15-25.60L249.15-25.60L249.15-25.60Q249.15-29.63 251.84-31.74L251.84-31.74L251.84-31.74Q254.53-33.86 258.62-33.86L258.62-33.86ZM286.08-43.58L286.08-32.90L295.55-32.90L295.55-31.62L286.08-31.62L286.08-6.85L286.08-6.85Q286.08-3.97 287.14-2.69L287.14-2.69L287.14-2.69Q288.19-1.41 290.18-1.41L290.18-1.41L290.18-1.41Q292.16-1.41 293.57-3.01L293.57-3.01L293.57-3.01Q294.98-4.61 295.94-8.26L295.94-8.26L297.22-7.94L297.22-7.94Q295.62 0.90 288.90 0.90L288.90 0.90L288.90 0.90Q286.72 0.90 285.31 0.38L285.31 0.38L285.31 0.38Q283.90-0.13 282.82-1.22L282.82-1.22L282.82-1.22Q281.41-2.62 280.86-4.67L280.86-4.67L280.86-4.67Q280.32-6.72 280.32-10.18L280.32-10.18L280.32-31.62L274.18-31.62L274.18-32.90L280.32-32.90L280.32-42.69L280.32-42.69Q283.90-42.82 286.08-43.58L286.08-43.58ZM307.01 0.45L307.01 0.45Q302.98 0.45 301.02-1.57L301.02-1.57L301.02-1.57Q299.07-3.58 299.07-7.17L299.07-7.17L299.07-7.17Q299.07-10.05 300.64-11.90L300.64-11.90L300.64-11.90Q302.21-13.76 304.35-14.85L304.35-14.85L304.35-14.85Q306.50-15.94 310.02-17.15L310.02-17.15L310.02-17.15Q313.60-18.37 315.33-19.39L315.33-19.39L315.33-19.39Q317.06-20.42 317.06-22.14L317.06-22.14L317.06-26.11L317.06-26.11Q317.06-29.82 315.49-31.20L315.49-31.20L315.49-31.20Q313.92-32.58 311.10-32.58L311.10-32.58L311.10-32.58Q306.62-32.58 304.77-30.27L304.77-30.27L304.77-30.27Q306.05-29.95 306.91-28.93L306.91-28.93L306.91-28.93Q307.78-27.90 307.78-26.37L307.78-26.37L307.78-26.37Q307.78-24.77 306.75-23.84L306.75-23.84L306.75-23.84Q305.73-22.91 304.13-22.91L304.13-22.91L304.13-22.91Q302.34-22.91 301.44-24.03L301.44-24.03L301.44-24.03Q300.54-25.15 300.54-26.75L300.54-26.75L300.54-26.75Q300.54-28.29 301.28-29.31L301.28-29.31L301.28-29.31Q302.02-30.34 303.49-31.36L303.49-31.36L303.49-31.36Q305.02-32.45 307.39-33.15L307.39-33.15L307.39-33.15Q309.76-33.86 312.58-33.86L312.58-33.86L312.58-33.86Q317.57-33.86 320.13-31.49L320.13-31.49L320.13-31.49Q321.73-30.02 322.27-27.94L322.27-27.94L322.27-27.94Q322.82-25.86 322.82-22.46L322.82-22.46L322.82-4.67L322.82-4.67Q322.82-3.07 323.26-2.37L323.26-2.37L323.26-2.37Q323.71-1.66 324.80-1.66L324.80-1.66L324.80-1.66Q325.57-1.66 326.24-2.02L326.24-2.02L326.24-2.02Q326.91-2.37 327.68-3.01L327.68-3.01L328.38-1.92L328.38-1.92Q326.72-0.64 325.54-0.10L325.54-0.10L325.54-0.10Q324.35 0.45 322.56 0.45L322.56 0.45L322.56 0.45Q319.49 0.45 318.27-1.09L318.27-1.09L318.27-1.09Q317.06-2.62 317.06-5.25L317.06-5.25L317.06-5.25Q315.14-2.05 312.64-0.80L312.64-0.80L312.64-0.80Q310.14 0.45 307.01 0.45L307.01 0.45ZM309.82-2.11L309.82-2.11Q314.05-2.11 317.06-6.98L317.06-6.98L317.06-19.52L317.06-19.52Q316.48-18.62 315.46-18.05L315.46-18.05L315.46-18.05Q314.43-17.47 312.32-16.51L312.32-16.51L312.32-16.51Q309.89-15.49 308.38-14.56L308.38-14.56L308.38-14.56Q306.88-13.63 305.79-12.03L305.79-12.03L305.79-12.03Q304.70-10.43 304.70-7.94L304.70-7.94L304.70-7.94Q304.70-5.06 306.11-3.58L306.11-3.58L306.11-3.58Q307.52-2.11 309.82-2.11L309.82-2.11Z" fill="#000000"></path></g></g><style>text {
  font-size: 64px;
  font-family: Arial Black;
  dominant-baseline: central;
  text-anchor: middle;
}</style></svg>