<svg width="306.577490234375px" height="135.21750488281248px" xmlns="http://www.w3.org/2000/svg" viewBox="96.71125488281251 7.391247558593761 306.577490234375 135.21750488281248" style="background: rgb(255, 255, 255);" preserveAspectRatio="xMidYMid"><defs><filter id="editing-hover" x="-100%" y="-100%" width="300%" height="300%"><feFlood flood-color="rgba(1.9607843137254888%,16.862745098039188%,29.01960784313726%,0)" result="flood"></feFlood><feComposite operator="in" in2="SourceAlpha" in="flood" result="shadow"></feComposite><feOffset dx="-0.6" dy="0.1" in="SourceGraphic" result="offset-1"></feOffset><feOffset dx="0.6" dy="-0.1" in="shadow" result="offset-2"></feOffset><feMerge><feMergeNode in="offset-2"></feMergeNode><feMergeNode in="offset-1"></feMergeNode></feMerge></filter></defs><g filter="url(#editing-hover)"><g transform="translate(143.70062923431396, 100.54000091552734)"><path d="M24.06-46.21L24.06-46.21Q27.84-46.21 30.27-45.15L30.27-45.15L30.27-45.15Q32.70-44.10 35.58-42.05L35.58-42.05L35.58-42.05Q36.42-41.41 36.86-41.41L36.86-41.41L36.86-41.41Q38.08-41.41 38.46-45.31L38.46-45.31L39.94-45.31L39.94-45.31Q39.68-41.15 39.68-30.59L39.68-30.59L38.21-30.59L38.21-30.59Q37.63-33.98 36.99-36.19L36.99-36.19L36.99-36.19Q36.35-38.40 35.01-40.06L35.01-40.06L35.01-40.06Q33.15-42.37 30.18-43.71L30.18-43.71L30.18-43.71Q27.20-45.06 23.94-45.06L23.94-45.06L23.94-45.06Q19.71-45.06 16.51-42.30L16.51-42.30L16.51-42.30Q13.31-39.55 11.58-34.46L11.58-34.46L11.58-34.46Q9.86-29.38 9.86-22.59L9.86-22.59L9.86-22.59Q9.86-11.07 13.54-5.73L13.54-5.73L13.54-5.73Q17.22-0.38 25.09-0.38L25.09-0.38L25.09-0.38Q28.93-0.38 31.74-2.37L31.74-2.37L31.74-2.37Q32.90-3.14 33.25-3.87L33.25-3.87L33.25-3.87Q33.60-4.61 33.60-5.89L33.60-5.89L33.60-12.03L33.60-12.03Q33.60-14.72 33.09-15.94L33.09-15.94L33.09-15.94Q32.58-17.15 31.30-17.60L31.30-17.60L31.30-17.60Q30.02-18.05 27.14-18.18L27.14-18.18L27.14-19.46L27.14-19.46Q30.46-19.26 36.16-19.26L36.16-19.26L36.16-19.26Q40.51-19.26 42.82-19.46L42.82-19.46L42.82-18.18L42.82-18.18Q41.34-18.05 40.67-17.66L40.67-17.66L40.67-17.66Q40-17.28 39.78-16.19L39.78-16.19L39.78-16.19Q39.55-15.10 39.55-12.67L39.55-12.67L39.55 0L38.27 0L38.27 0Q38.21-1.28 37.76-2.46L37.76-2.46L37.76-2.46Q37.31-3.65 36.54-3.65L36.54-3.65L36.54-3.65Q36.16-3.65 35.78-3.46L35.78-3.46L35.78-3.46Q35.39-3.26 34.43-2.56L34.43-2.56L34.43-2.56Q32.19-0.83 29.79 0.03L29.79 0.03L29.79 0.03Q27.39 0.90 24.45 0.90L24.45 0.90L24.45 0.90Q17.86 0.90 13.15-1.82L13.15-1.82L13.15-1.82Q8.45-4.54 5.95-9.66L5.95-9.66L5.95-9.66Q3.46-14.78 3.46-21.89L3.46-21.89L3.46-21.89Q3.46-29.18 6.11-34.72L6.11-34.72L6.11-34.72Q8.77-40.26 13.44-43.23L13.44-43.23L13.44-43.23Q18.11-46.21 24.06-46.21L24.06-46.21ZM73.34-8.19L74.62-7.68L74.62-7.68Q73.47-4.16 70.30-1.63L70.30-1.63L70.30-1.63Q67.14 0.90 62.66 0.90L62.66 0.90L62.66 0.90Q58.11 0.90 54.78-1.18L54.78-1.18L54.78-1.18Q51.46-3.26 49.70-7.01L49.70-7.01L49.70-7.01Q47.94-10.75 47.94-15.68L47.94-15.68L47.94-15.68Q47.94-21.25 49.73-25.34L49.73-25.34L49.73-25.34Q51.52-29.44 54.78-31.65L54.78-31.65L54.78-31.65Q58.05-33.86 62.40-33.86L62.40-33.86L62.40-33.86Q68.16-33.86 71.26-30.37L71.26-30.37L71.26-30.37Q74.37-26.88 74.37-19.78L74.37-19.78L54.34-19.78L54.34-19.78Q54.14-17.98 54.14-15.68L54.14-15.68L54.14-15.68Q54.14-11.46 55.52-8.32L55.52-8.32L55.52-8.32Q56.90-5.18 59.17-3.49L59.17-3.49L59.17-3.49Q61.44-1.79 63.94-1.79L63.94-1.79L63.94-1.79Q67.01-1.79 69.38-3.26L69.38-3.26L69.38-3.26Q71.74-4.74 73.34-8.19L73.34-8.19ZM62.14-32.64L62.14-32.64Q59.14-32.64 56.96-29.70L56.96-29.70L56.96-29.70Q54.78-26.75 54.27-20.99L54.27-20.99L68.22-20.99L68.22-20.99Q68.35-25.98 66.78-29.31L66.78-29.31L66.78-29.31Q65.22-32.64 62.14-32.64L62.14-32.64ZM108.35-6.98L108.35-6.98Q108.35-4.03 109.44-2.69L109.44-2.69L109.44-2.69Q110.53-1.34 113.22-1.34L113.22-1.34L113.22 0L113.22 0Q111.23-0.19 109.25-0.19L109.25-0.19L109.25-0.19Q105.22-0.19 102.59 0.70L102.59 0.70L102.59-4.99L102.59-4.99Q101.44-2.11 99.14-0.61L99.14-0.61L99.14-0.61Q96.83 0.90 93.50 0.90L93.50 0.90L93.50 0.90Q87.36 0.90 83.87-3.52L83.87-3.52L83.87-3.52Q80.38-7.94 80.45-16.45L80.45-16.45L80.45-16.45Q80.45-22.02 82.40-25.95L82.40-25.95L82.40-25.95Q84.35-29.89 87.65-31.87L87.65-31.87L87.65-31.87Q90.94-33.86 94.91-33.86L94.91-33.86L94.91-33.86Q97.34-33.86 99.36-32.93L99.36-32.93L99.36-32.93Q101.38-32 102.59-30.08L102.59-30.08L102.59-42.50L102.59-42.50Q102.59-45.44 101.50-46.78L101.50-46.78L101.50-46.78Q100.42-48.13 97.73-48.13L97.73-48.13L97.73-49.47L97.73-49.47Q99.78-49.28 101.70-49.28L101.70-49.28L101.70-49.28Q105.73-49.28 108.35-50.18L108.35-50.18L108.35-6.98ZM95.36-1.02L95.36-1.02Q97.86-1.02 99.84-2.94L99.84-2.94L99.84-2.94Q101.82-4.86 102.59-8.38L102.59-8.38L102.59-27.46L102.59-27.46Q100.86-32.38 95.42-32.38L95.42-32.38L95.42-32.38Q91.46-32.38 89.02-28.32L89.02-28.32L89.02-28.32Q86.59-24.26 86.66-16.45L86.66-16.45L86.66-16.45Q86.59-8.77 88.83-4.90L88.83-4.90L88.83-4.90Q91.07-1.02 95.36-1.02L95.36-1.02ZM132.10-33.86L132.10-33.86Q138.62-33.86 142.62-29.54L142.62-29.54L142.62-29.54Q146.62-25.22 146.62-16.45L146.62-16.45L146.62-16.45Q146.62-7.68 142.62-3.39L142.62-3.39L142.62-3.39Q138.62 0.90 132.10 0.90L132.10 0.90L132.10 0.90Q125.57 0.90 121.57-3.39L121.57-3.39L121.57-3.39Q117.57-7.68 117.57-16.45L117.57-16.45L117.57-16.45Q117.57-25.22 121.57-29.54L121.57-29.54L121.57-29.54Q125.57-33.86 132.10-33.86L132.10-33.86ZM132.10-32.58L132.10-32.58Q128.26-32.58 126.02-28.64L126.02-28.64L126.02-28.64Q123.78-24.70 123.78-16.45L123.78-16.45L123.78-16.45Q123.78-8.19 126.02-4.29L126.02-4.29L126.02-4.29Q128.26-0.38 132.10-0.38L132.10-0.38L132.10-0.38Q135.94-0.38 138.18-4.29L138.18-4.29L138.18-4.29Q140.42-8.19 140.42-16.45L140.42-16.45L140.42-16.45Q140.42-24.70 138.18-28.64L138.18-28.64L138.18-28.64Q135.94-32.58 132.10-32.58L132.10-32.58ZM171.39-33.86L171.39-33.86Q173.95-33.86 175.58-32.38L175.58-32.38L175.58-32.38Q177.22-30.91 177.22-28.80L177.22-28.80L177.22-28.80Q177.22-27.14 176.22-25.95L176.22-25.95L176.22-25.95Q175.23-24.77 173.57-24.77L173.57-24.77L173.57-24.77Q172.16-24.77 171.17-25.66L171.17-25.66L171.17-25.66Q170.18-26.56 170.18-28.10L170.18-28.10L170.18-28.10Q170.18-30.21 172.35-31.55L172.35-31.55L172.35-31.55Q171.90-32.19 171.01-32.19L171.01-32.19L171.01-32.19Q168.51-32.19 166.46-30.24L166.46-30.24L166.46-30.24Q164.42-28.29 163.26-25.47L163.26-25.47L163.26-25.47Q162.11-22.66 162.11-20.16L162.11-20.16L162.11-6.59L162.11-6.59Q162.11-3.65 163.81-2.50L163.81-2.50L163.81-2.50Q165.50-1.34 168.90-1.34L168.90-1.34L168.90 0L167.36-0.06L167.36-0.06Q160.83-0.26 159.04-0.26L159.04-0.26L159.04-0.26Q157.38-0.26 151.49 0L151.49 0L151.49-1.34L151.49-1.34Q154.18-1.34 155.26-2.34L155.26-2.34L155.26-2.34Q156.35-3.33 156.35-5.95L156.35-5.95L156.35-25.98L156.35-25.98Q156.35-28.93 155.26-30.27L155.26-30.27L155.26-30.27Q154.18-31.62 151.49-31.62L151.49-31.62L151.49-32.96L151.49-32.96Q153.54-32.77 155.46-32.77L155.46-32.77L155.46-32.77Q159.49-32.77 162.11-33.66L162.11-33.66L162.11-25.66L162.11-25.66Q163.26-28.86 165.79-31.36L165.79-31.36L165.79-31.36Q168.32-33.86 171.39-33.86L171.39-33.86ZM188.54 0.45L188.54 0.45Q184.51 0.45 182.56-1.57L182.56-1.57L182.56-1.57Q180.61-3.58 180.61-7.17L180.61-7.17L180.61-7.17Q180.61-10.05 182.18-11.90L182.18-11.90L182.18-11.90Q183.74-13.76 185.89-14.85L185.89-14.85L185.89-14.85Q188.03-15.94 191.55-17.15L191.55-17.15L191.55-17.15Q195.14-18.37 196.86-19.39L196.86-19.39L196.86-19.39Q198.59-20.42 198.59-22.14L198.59-22.14L198.59-26.11L198.59-26.11Q198.59-29.82 197.02-31.20L197.02-31.20L197.02-31.20Q195.46-32.58 192.64-32.58L192.64-32.58L192.64-32.58Q188.16-32.58 186.30-30.27L186.30-30.27L186.30-30.27Q187.58-29.95 188.45-28.93L188.45-28.93L188.45-28.93Q189.31-27.90 189.31-26.37L189.31-26.37L189.31-26.37Q189.31-24.77 188.29-23.84L188.29-23.84L188.29-23.84Q187.26-22.91 185.66-22.91L185.66-22.91L185.66-22.91Q183.87-22.91 182.98-24.03L182.98-24.03L182.98-24.03Q182.08-25.15 182.08-26.75L182.08-26.75L182.08-26.75Q182.08-28.29 182.82-29.31L182.82-29.31L182.82-29.31Q183.55-30.34 185.02-31.36L185.02-31.36L185.02-31.36Q186.56-32.45 188.93-33.15L188.93-33.15L188.93-33.15Q191.30-33.86 194.11-33.86L194.11-33.86L194.11-33.86Q199.10-33.86 201.66-31.49L201.66-31.49L201.66-31.49Q203.26-30.02 203.81-27.94L203.81-27.94L203.81-27.94Q204.35-25.86 204.35-22.46L204.35-22.46L204.35-4.67L204.35-4.67Q204.35-3.07 204.80-2.37L204.80-2.37L204.80-2.37Q205.25-1.66 206.34-1.66L206.34-1.66L206.34-1.66Q207.10-1.66 207.78-2.02L207.78-2.02L207.78-2.02Q208.45-2.37 209.22-3.01L209.22-3.01L209.92-1.92L209.92-1.92Q208.26-0.64 207.07-0.10L207.07-0.10L207.07-0.10Q205.89 0.45 204.10 0.45L204.10 0.45L204.10 0.45Q201.02 0.45 199.81-1.09L199.81-1.09L199.81-1.09Q198.59-2.62 198.59-5.25L198.59-5.25L198.59-5.25Q196.67-2.05 194.18-0.80L194.18-0.80L194.18-0.80Q191.68 0.45 188.54 0.45L188.54 0.45ZM191.36-2.11L191.36-2.11Q195.58-2.11 198.59-6.98L198.59-6.98L198.59-19.52L198.59-19.52Q198.02-18.62 196.99-18.05L196.99-18.05L196.99-18.05Q195.97-17.47 193.86-16.51L193.86-16.51L193.86-16.51Q191.42-15.49 189.92-14.56L189.92-14.56L189.92-14.56Q188.42-13.63 187.33-12.03L187.33-12.03L187.33-12.03Q186.24-10.43 186.24-7.94L186.24-7.94L186.24-7.94Q186.24-5.06 187.65-3.58L187.65-3.58L187.65-3.58Q189.06-2.11 191.36-2.11L191.36-2.11Z" fill="#000000"></path></g></g><style>text {
  font-size: 64px;
  font-family: Arial Black;
  dominant-baseline: central;
  text-anchor: middle;
}</style></svg>